<?xml version="1.0" encoding="UTF-8" standalone="no"?>
<svg
   width="60.808056mm"
   height="65.021332mm"
   viewBox="0 0 229.85401 245.78016"
   version="1.1"
   id="svg1"
   xml:space="preserve"
   xmlns:xlink="http://www.w3.org/1999/xlink"
   xmlns="http://www.w3.org/2000/svg"
   xmlns:svg="http://www.w3.org/2000/svg"><defs
     id="defs1"><linearGradient
       id="linearGradient17-1"><stop
         style="stop-color:#e38262;stop-opacity:1;"
         offset="0.31379512"
         id="stop17" /><stop
         style="stop-color:#de9c71;stop-opacity:0.49803922;"
         offset="0.72471863"
         id="stop19" /></linearGradient><linearGradient
       xlink:href="#linearGradient17-1"
       id="linearGradient18"
       x1="130.38918"
       y1="234.40527"
       x2="360.24319"
       y2="234.40527"
       gradientUnits="userSpaceOnUse"
       spreadMethod="repeat"
       gradientTransform="translate(-130.38918,-111.51518)" /></defs><path
     id="Sélection"
     fill="none"
     stroke="#000000"
     stroke-width="1"
     d="m 111.504,0.7101775 c 14.53,-1.46 32.77,4.9 44,14.0400005 9.17,7.46 11.43,14.38 15.18,16.51 2.44,1.39 6.99,0.99 9.82,1.02 24.79,0.3 48.7,24.2 48.85,49 0,0 0,13 0,13 -1.9,12.160002 -10.45,26.800002 -19.85,34.540002 -3.94,3.24 -8.26,6.07 -13,8.01 -6.53,2.67 -12.97,3.39 -16.55,10.45 -1.64,3.24 -1.44,6.49 -1.45,10 0,0 0,47 0,47 0,7.55 0.62,19.07 -1.96,26 -4.22,11.3 -13.94,14.98 -25.04,15 0,0 -75.999995,0 -75.999995,0 -18.01,-0.22 -24.97,-11.22 -25,-28 0,0 0,-59 0,-59 -0.01,-4.66 0.12,-8.94 -2.7,-12.96 -3.82,-5.44 -10.45,-6.6 -16.3,-8.73 -5.82,-2.13 -10.25,-4.82 -14.91,-8.93 -22.2000004,-19.56 -20.3800004,-58.570002 -1,-79.380002 7.39,-7.94 15.28,-12.68 25.91,-14.99 4.93,-1.06 14.85,-0.44 17.63,-2.61 2.13,-1.67 5.41,-8.21 13.37,-15.22 7.44,-6.5500005 19.23,-11.9500005 28.999995,-13.7200005 z m 62,42.5700005 c 0.67,2.75 0.92,4.15 0.99,7 0.08,3.57 0.46,9.85 -4.1,10.88 -1.69,0.39 -3.31,-0.21 -4.58,-1.35 -2.82,-2.56 -2.36,-8.72 -3.12,-12.53 -1.28,-6.41 -3.66,-10.86 -7.71,-16 -18.93,-24.0300005 -56.079995,-25.3700005 -77.469995,-3.99 -6.07,6.08 -9.6,11.54 -11.34,19.99 -1,4.82 0.37,11.6 -4.73,13.61 -1.26,0.53 -2.56,0.51 -3.81,0 -5.47,-2.4 -3.24,-13.06 -2.13,-17.61 -11.09,0.51 -21.5,3.87 -29.83,11.46 -16.4700004,15 -17.6700004,43.13 -4.41,60.530002 8.8,11.54 18.11,10.17 26.24,14.41 11.47,5.98 14.98,16.45 15,28.6 0,0 0,42 0,42 0.04,1.7 -0.04,4.01 1.02,5.44 2.03,2.75 13.46,4.27 16.98,4.56 0,0 0,-31 0,-31 0.07,-3.43 0.79,-8.9 5.42,-8.89 5.64,0.02 5.57,7.01 5.58,10.89 0,0 0,30 0,30 0,0 17.999995,1 17.999995,1 0,0 0,-33 0,-33 0.07,-3.43 0.79,-8.9 5.42,-8.89 5.64,0.02 5.57,7.01 5.58,10.89 0,0 0,31 0,31 0,0 18,0 18,0 0,0 0,-32 0,-32 0.05,-3.71 0.54,-9.59 5.43,-9.98 6.36,-0.52 6.55,7.7 6.57,11.98 0,0 0,29 0,29 14.86,0 15.94,1.2 16,-8 0,0 0,-46 0,-46 0.01,-9.55 0.83,-7.73 2,-16 -3.95,0 -17.06,0.63 -19.85,-1.02 -3.62,-2.15 -3.62,-6.81 0,-8.96 2.05,-1.21 5.5,-1.02 7.85,-1.02 18.37,-0.04 36.6,-0.15 49.82,-15 19.39,-21.810002 14.91,-54.260002 -11.82,-67.630002 -6.67,-3.33 -13.64,-4.35 -21,-4.37 z m -7,179.000002 c 0,0 -17,1 -17,1 0,0 -50.999995,0 -50.999995,0 0,0 -24,-2.27 -24,-2.27 0,0 -12,-1.73 -12,-1.73 0.28,11.22 4.4,13.98 15,14 0,0 72.999995,0 72.999995,0 9.37,-0.02 13.51,-1.08 16,-11 z"
     style="mix-blend-mode:color;fill:url(#linearGradient18)" /></svg>
